<!-- Generated by IcoMoon.io -->
<svg version="1.1" xmlns="http://www.w3.org/2000/svg" width="24" height="28" viewBox="0 0 24 28">
<title>ban</title>
<path d="M20.5 13.953c0-1.703-0.5-3.281-1.359-4.609l-11.781 11.766c1.344 0.875 2.938 1.391 4.641 1.391 4.688 0 8.5-3.828 8.5-8.547zM4.891 18.625l11.797-11.781c-1.344-0.906-2.953-1.422-4.688-1.422-4.688 0-8.5 3.828-8.5 8.531 0 1.734 0.516 3.328 1.391 4.672zM24 13.953c0 6.656-5.375 12.047-12 12.047s-12-5.391-12-12.047c0-6.641 5.375-12.031 12-12.031s12 5.391 12 12.031z"></path>
</svg>
