<svg version="1.1" xmlns="http://www.w3.org/2000/svg" width="28" height="28" viewBox="0 0 28 28" fill="currentColor">
<title>globe</title>
<path d="M13.125 1.75c-7.249 0-13.125 5.876-13.125 13.125s5.876 13.125 13.125 13.125c7.249 0 13.125-5.876 13.125-13.125s-5.876-13.125-13.125-13.125zM20.551 19.25c0.235-1.106 0.383-2.28 0.431-3.5h3.485c-0.091 1.209-0.373 2.382-0.839 3.5h-3.077zM5.699 10.5c-0.235 1.106-0.383 2.28-0.431 3.5h-3.485c0.091-1.208 0.373-2.382 0.839-3.5h3.077zM18.759 10.5c0.263 1.12 0.421 2.293 0.473 3.5h-5.231v-3.5h4.759zM14 8.75v-5.122c0.399 0.116 0.794 0.311 1.182 0.584 0.727 0.512 1.422 1.302 2.011 2.283 0.407 0.678 0.759 1.433 1.053 2.255h-4.245zM9.057 6.495c0.589-0.981 1.284-1.77 2.011-2.283 0.388-0.273 0.783-0.468 1.182-0.584v5.123h-4.245c0.294-0.822 0.646-1.577 1.053-2.255zM12.25 10.5v3.5h-5.231c0.051-1.207 0.21-2.38 0.472-3.5h4.759zM2.622 19.25c-0.466-1.118-0.748-2.291-0.839-3.5h3.485c0.048 1.22 0.196 2.394 0.431 3.5h-3.077zM7.019 15.75h5.231v3.5h-4.759c-0.263-1.12-0.421-2.293-0.472-3.5zM12.25 21v5.123c-0.399-0.116-0.794-0.311-1.182-0.584-0.727-0.512-1.422-1.302-2.011-2.283-0.407-0.678-0.759-1.433-1.053-2.255h4.246zM17.193 23.255c-0.589 0.981-1.284 1.77-2.011 2.283-0.388 0.273-0.783 0.468-1.182 0.584v-5.123h4.246c-0.294 0.822-0.646 1.577-1.053 2.255zM14 19.25v-3.5h5.231c-0.051 1.207-0.21 2.38-0.472 3.5h-4.759zM20.982 14c-0.048-1.22-0.196-2.394-0.431-3.5h3.077c0.466 1.118 0.748 2.292 0.839 3.5h-3.485zM22.713 8.75h-2.622c-0.51-1.607-1.213-3.016-2.059-4.141 1.163 0.556 2.216 1.302 3.137 2.222 0.587 0.587 1.104 1.229 1.545 1.918zM5.082 6.832c0.92-0.92 1.974-1.666 3.137-2.222-0.846 1.125-1.55 2.534-2.059 4.141l-2.622-0c0.441-0.69 0.958-1.331 1.545-1.918zM3.537 21h2.622c0.51 1.607 1.213 3.016 2.060 4.141-1.163-0.556-2.216-1.302-3.137-2.222-0.587-0.587-1.104-1.229-1.545-1.918zM21.168 22.918c-0.92 0.92-1.974 1.666-3.137 2.222 0.846-1.125 1.55-2.534 2.059-4.141h2.622c-0.441 0.69-0.958 1.331-1.545 1.918z"></path>
</svg>
