<svg width="640" height="512" viewBox="0 0 640 512" fill="none" xmlns="http://www.w3.org/2000/svg">
<path fill-rule="evenodd" clip-rule="evenodd" d="M480 176C480 96.471 415.529 32 336 32C256.471 32 192 96.471 192 176C192 194.968 195.675 213.076 202.339 229.661L32 400V480H128V416H192V352H240L282.339 309.661C298.924 316.325 317.032 320 336 320C415.529 320 480 255.529 480 176ZM160 176C160 78.769 238.816 0 336 0C433.231 0 512 78.816 512 176C512 273.231 433.184 352 336 352C320.693 352 305.648 350.055 291.054 346.202L260.285 376.971C255.784 381.471 249.679 384 243.314 384H224V424C224 437.255 213.255 448 200 448H160V488C160 501.255 149.255 512 136 512H24C10.745 512 0 501.255 0 488V396.686C0.000362772 390.321 2.5287 384.217 7.029 379.716L165.798 220.947C161.945 206.352 160 191.307 160 176ZM404 128C404 116.972 395.028 108 384 108C372.972 108 364 116.972 364 128C364 139.028 372.972 148 384 148C395.028 148 404 139.028 404 128ZM336 128C336 101.49 357.49 80 384 80C410.51 80 432 101.49 432 128C432 154.51 410.51 176 384 176C357.49 176 336 154.51 336 128ZM544 384H632C636.4 384 640 387.6 640 392V408C640 412.4 636.4 416 632 416H544V504C544 508.4 540.4 512 536 512H520C515.6 512 512 508.4 512 504V416H424C419.6 416 416 412.4 416 408V392C416 387.6 419.6 384 424 384H512V296C512 291.6 515.6 288 520 288H536C540.4 288 544 291.6 544 296V384Z" fill="black"/>
</svg>
