<svg version="1.1" xmlns="http://www.w3.org/2000/svg" width="28" height="28" viewBox="0 0 28 28">
<title>move</title>
<path fill="currentColor" d="M18.308 5.385c0 2.379-1.929 4.308-4.308 4.308s-4.308-1.929-4.308-4.308c0-2.379 1.929-4.308 4.308-4.308s4.308 1.929 4.308 4.308z"></path>
<path fill="currentColor" d="M9.692 14c0 2.379-1.929 4.308-4.308 4.308s-4.308-1.929-4.308-4.308c0-2.379 1.929-4.308 4.308-4.308s4.308 1.929 4.308 4.308z"></path>
<path fill="currentColor" d="M18.308 22.615c0 2.379-1.929 4.308-4.308 4.308s-4.308-1.929-4.308-4.308c0-2.379 1.929-4.308 4.308-4.308s4.308 1.929 4.308 4.308z"></path>
<path fill="currentColor" d="M26.892 14c0 2.362-1.915 4.276-4.276 4.276s-4.276-1.915-4.276-4.276c0-2.362 1.915-4.276 4.276-4.276s4.276 1.915 4.276 4.276z"></path>
</svg>
