<svg version="1.1" xmlns="http://www.w3.org/2000/svg" width="28" height="28" viewBox="0 0 28 28">
<title>screwdriver</title>
<path d="M21.616 0.709l-5.955 5.955c0.26 1.136-0.051 2.376-0.936 3.26s-2.125 1.196-3.26 0.936l-0.705 0.705c-0.603 0.603-0.118 2.101 1.080 3.575l-8.059 8.059-2.031 0.875-1.75 2.802 1.573 1.573 2.802-1.75 0.875-2.031 8.059-8.059c1.475 1.198 2.972 1.684 3.575 1.081 0-0 0-0 0-0l0.705-0.705c-0.26-1.136 0.051-2.376 0.936-3.26s2.125-1.196 3.26-0.936l5.955-5.955c0.71-0.71-0.086-2.656-1.778-4.347s-3.638-2.487-4.347-1.778zM24.36 4.090c0.203 0.203 0.304 0.469 0.304 0.735s-0.101 0.532-0.304 0.735l-8.75 8.75c-0.406 0.406-1.064 0.406-1.469 0s-0.406-1.064 0-1.469l8.75-8.75c0.406-0.406 1.064-0.406 1.469-0z"></path>
</svg>
