<svg version="1.1" xmlns="http://www.w3.org/2000/svg" width="28" height="28" viewBox="0 0 28 28" fill="currentColor">
<title>structure-rtl</title>
<path d="M18 20.5v3c0 0.266 0.234 0.5 0.5 0.5h3c0.266 0 0.5-0.234 0.5-0.5v-3c0-0.266-0.234-0.5-0.5-0.5h-3c-0.266 0-0.5 0.234-0.5 0.5zM12 14.5v3c0 0.266 0.234 0.5 0.5 0.5h3c0.266 0 0.5-0.234 0.5-0.5v-3c0-0.266-0.234-0.5-0.5-0.5h-3c-0.266 0-0.5 0.234-0.5 0.5zM18 8.5v3c0 0.266 0.234 0.5 0.5 0.5h3c0.266 0 0.5-0.234 0.5-0.5v-3c0-0.266-0.234-0.5-0.5-0.5h-3c-0.266 0-0.5 0.234-0.5 0.5zM0 20.5v3c0 0.266 0.234 0.5 0.5 0.5h15c0.266 0 0.5-0.234 0.5-0.5v-3c0-0.266-0.234-0.5-0.5-0.5h-15c-0.266 0-0.5 0.234-0.5 0.5zM24 2.5v3c0 0.266 0.234 0.5 0.5 0.5h3c0.266 0 0.5-0.234 0.5-0.5v-3c0-0.266-0.234-0.5-0.5-0.5h-3c-0.266 0-0.5 0.234-0.5 0.5zM0 14.5v3c0 0.266 0.234 0.5 0.5 0.5h9c0.266 0 0.5-0.234 0.5-0.5v-3c0-0.266-0.234-0.5-0.5-0.5h-9c-0.266 0-0.5 0.234-0.5 0.5zM0 8.5v3c0 0.266 0.234 0.5 0.5 0.5h15c0.266 0 0.5-0.234 0.5-0.5v-3c0-0.266-0.234-0.5-0.5-0.5h-15c-0.266 0-0.5 0.234-0.5 0.5zM0 2.5v3c0 0.266 0.234 0.5 0.5 0.5h21c0.266 0 0.5-0.234 0.5-0.5v-3c0-0.266-0.234-0.5-0.5-0.5h-21c-0.266 0-0.5 0.234-0.5 0.5z"></path>
</svg>
