<?xml version="1.0" encoding="UTF-8"?>
<svg xmlns="http://www.w3.org/2000/svg"
     xmlns:xlink="http://www.w3.org/1999/xlink" style="display: none;">
    <symbol id="light-cog" viewBox="0 0 512 512">
        <title id="light-cog">Cog</title>
        <path d="M482.696 299.276l-32.61-18.827a195.168 195.168 0 000-48.899l32.61-18.827c9.576-5.528 14.195-16.902 11.046-27.501-11.214-37.749-31.175-71.728-57.535-99.595-7.634-8.07-19.817-9.836-29.437-4.282l-32.562 18.798a194.125 194.125 0 00-42.339-24.48V38.049c0-11.13-7.652-20.804-18.484-23.367-37.644-8.909-77.118-8.91-114.77 0-10.831 2.563-18.484 12.236-18.484 23.367v37.614a194.101 194.101 0 00-42.339 24.48L105.23 81.345c-9.621-5.554-21.804-3.788-29.437 4.282-26.36 27.867-46.321 61.847-57.535 99.595-3.149 10.599 1.47 21.972 11.046 27.501l32.61 18.827a195.168 195.168 0 000 48.899l-32.61 18.827c-9.576 5.528-14.195 16.902-11.046 27.501 11.214 37.748 31.175 71.728 57.535 99.595 7.634 8.07 19.817 9.836 29.437 4.283l32.562-18.798a194.08 194.08 0 0042.339 24.479v37.614c0 11.13 7.652 20.804 18.484 23.367 37.645 8.909 77.118 8.91 114.77 0 10.831-2.563 18.484-12.236 18.484-23.367v-37.614a194.138 194.138 0 0042.339-24.479l32.562 18.798c9.62 5.554 21.803 3.788 29.437-4.283 26.36-27.867 46.321-61.847 57.535-99.595 3.149-10.599-1.47-21.972-11.046-27.501zm-65.479 100.461l-46.309-26.74c-26.988 23.071-36.559 28.876-71.039 41.059v53.479a217.145 217.145 0 01-87.738 0v-53.479c-33.621-11.879-43.355-17.395-71.039-41.059l-46.309 26.74c-19.71-22.09-34.689-47.989-43.929-75.958l46.329-26.74c-6.535-35.417-6.538-46.644 0-82.079l-46.329-26.74c9.24-27.969 24.22-53.869 43.929-75.969l46.309 26.76c27.377-23.434 37.063-29.065 71.039-41.069V44.464a216.79 216.79 0 0187.738 0v53.479c33.978 12.005 43.665 17.637 71.039 41.069l46.309-26.76c19.709 22.099 34.689 47.999 43.929 75.969l-46.329 26.74c6.536 35.426 6.538 46.644 0 82.079l46.329 26.74c-9.24 27.968-24.219 53.868-43.929 75.957zM256 160c-52.935 0-96 43.065-96 96s43.065 96 96 96 96-43.065 96-96-43.065-96-96-96zm0 160c-35.29 0-64-28.71-64-64s28.71-64 64-64 64 28.71 64 64-28.71 64-64 64z"/>
    </symbol>
    <symbol id="light-key" viewBox="0 0 512 512">
        <title id="light-key">Key</title>
        <path d="M336 32c79.529 0 144 64.471 144 144s-64.471 144-144 144c-18.968 0-37.076-3.675-53.661-10.339L240 352h-48v64h-64v64H32v-80l170.339-170.339C195.675 213.076 192 194.968 192 176c0-79.529 64.471-144 144-144m0-32c-97.184 0-176 78.769-176 176 0 15.307 1.945 30.352 5.798 44.947L7.029 379.716A24.003 24.003 0 000 396.686V488c0 13.255 10.745 24 24 24h112c13.255 0 24-10.745 24-24v-40h40c13.255 0 24-10.745 24-24v-40h19.314c6.365 0 12.47-2.529 16.971-7.029l30.769-30.769C305.648 350.055 320.693 352 336 352c97.184 0 176-78.769 176-176C512 78.816 433.231 0 336 0zm48 108c11.028 0 20 8.972 20 20s-8.972 20-20 20-20-8.972-20-20 8.972-20 20-20m0-28c-26.51 0-48 21.49-48 48s21.49 48 48 48 48-21.49 48-48-21.49-48-48-48z"/>
    </symbol>
    <symbol id="light-plug" viewBox="0 0 384 512">
        <title id="light-plug">Plug</title>
        <path d="M352 128h-48V16a16 16 0 00-32 0v112H112V16a16 16 0 00-32 0v112H32a32 32 0 00-32 32v32a32 32 0 0032 32v32c0 82.75 63.37 150.22 144 158.38V512h32v-97.62c80.63-8.16 144-75.63 144-158.38v-32a32 32 0 0032-32v-32a32 32 0 00-32-32zm-32 128a128 128 0 01-256 0v-32h256zm32-64H32v-32h320z"/>
    </symbol>
    <symbol id="light-user-circle" viewBox="0 0 496 512">
        <title id="light-user-circle">User Circle</title>
        <path d="M248 8C111 8 0 119 0 256s111 248 248 248 248-111 248-248S385 8 248 8zm128 421.6c-35.9 26.5-80.1 42.4-128 42.4s-92.1-15.9-128-42.4V416c0-35.3 28.7-64 64-64 11.1 0 27.5 11.4 64 11.4 36.6 0 52.8-11.4 64-11.4 35.3 0 64 28.7 64 64v13.6zm30.6-27.5c-6.8-46.4-46.3-82.1-94.6-82.1-20.5 0-30.4 11.4-64 11.4S204.6 320 184 320c-48.3 0-87.8 35.7-94.6 82.1C53.9 363.6 32 312.4 32 256c0-119.1 96.9-216 216-216s216 96.9 216 216c0 56.4-21.9 107.6-57.4 146.1zM248 120c-48.6 0-88 39.4-88 88s39.4 88 88 88 88-39.4 88-88-39.4-88-88-88zm0 144c-30.9 0-56-25.1-56-56s25.1-56 56-56 56 25.1 56 56-25.1 56-56 56z"/>
    </symbol>
    <symbol id="light-usd-circle" viewBox="0 0 496 512">
        <title id="light-usd-circle">USD Circle</title>
        <path d="M248 8C111 8 0 119 0 256s111 248 248 248 248-111 248-248S385 8 248 8zm0 464c-119.1 0-216-96.9-216-216S128.9 40 248 40s216 96.9 216 216-96.9 216-216 216zm40.3-221.3l-72-20.2c-12.1-3.4-20.6-14.4-20.6-26.7 0-15.3 12.8-27.8 28.5-27.8h45c11.2 0 21.9 3.6 30.6 10.1 3.2 2.4 7.6 2 10.4-.8l11.3-11.5c3.4-3.4 3-9-.8-12-14.6-11.6-32.6-17.9-51.6-17.9H264v-40c0-4.4-3.6-8-8-8h-16c-4.4 0-8 3.6-8 8v40h-7.8c-33.3 0-60.5 26.8-60.5 59.8 0 26.6 18.1 50.2 43.9 57.5l72 20.2c12.1 3.4 20.6 14.4 20.6 26.7 0 15.3-12.8 27.8-28.5 27.8h-45c-11.2 0-21.9-3.6-30.6-10.1-3.2-2.4-7.6-2-10.4.8l-11.3 11.5c-3.4 3.4-3 9 .8 12 14.6 11.6 32.6 17.9 51.6 17.9h5.2v40c0 4.4 3.6 8 8 8h16c4.4 0 8-3.6 8-8v-40h7.8c33.3 0 60.5-26.8 60.5-59.8-.1-26.6-18.1-50.2-44-57.5z"/>
    </symbol>
    <symbol id="light-address-card" viewBox="0 0 576 512">
        <title id="light-address-card">Address Card</title>
        <path d="M512 32H64C28.7 32 0 60.7 0 96v320c0 35.3 28.7 64 64 64h448c35.3 0 64-28.7 64-64V96c0-35.3-28.7-64-64-64zm32 384c0 17.6-14.4 32-32 32H64c-17.6 0-32-14.4-32-32V96c0-17.6 14.4-32 32-32h448c17.6 0 32 14.4 32 32v320zm-72-128H360c-4.4 0-8 3.6-8 8v16c0 4.4 3.6 8 8 8h112c4.4 0 8-3.6 8-8v-16c0-4.4-3.6-8-8-8zm0-64H360c-4.4 0-8 3.6-8 8v16c0 4.4 3.6 8 8 8h112c4.4 0 8-3.6 8-8v-16c0-4.4-3.6-8-8-8zm0-64H360c-4.4 0-8 3.6-8 8v16c0 4.4 3.6 8 8 8h112c4.4 0 8-3.6 8-8v-16c0-4.4-3.6-8-8-8zM208 288c44.2 0 80-35.8 80-80s-35.8-80-80-80-80 35.8-80 80 35.8 80 80 80zm0-128c26.5 0 48 21.5 48 48s-21.5 48-48 48-48-21.5-48-48 21.5-48 48-48zm46.8 144c-19.5 0-24.4 7-46.8 7s-27.3-7-46.8-7c-21.2 0-41.8 9.4-53.8 27.4C100.2 342.1 96 355 96 368.9V392c0 4.4 3.6 8 8 8h16c4.4 0 8-3.6 8-8v-23.1c0-7 2.1-13.8 6-19.6 5.6-8.3 15.8-13.2 27.3-13.2 12.4 0 20.8 7 46.8 7 25.9 0 34.3-7 46.8-7 11.5 0 21.7 5 27.3 13.2 3.9 5.8 6 12.6 6 19.6V392c0 4.4 3.6 8 8 8h16c4.4 0 8-3.6 8-8v-23.1c0-13.9-4.2-26.8-11.4-37.5-12.3-18-32.9-27.4-54-27.4z"/>
    </symbol>
    <symbol id="light-credit-card" viewBox="0 0 576 512">
        <title id="light-credit-card">Credit Card</title>
        <path d="M528 32H48C21.5 32 0 53.5 0 80v352c0 26.5 21.5 48 48 48h480c26.5 0 48-21.5 48-48V80c0-26.5-21.5-48-48-48zM48 64h480c8.8 0 16 7.2 16 16v48H32V80c0-8.8 7.2-16 16-16zm480 384H48c-8.8 0-16-7.2-16-16V224h512v208c0 8.8-7.2 16-16 16zm-336-84v8c0 6.6-5.4 12-12 12h-72c-6.6 0-12-5.4-12-12v-8c0-6.6 5.4-12 12-12h72c6.6 0 12 5.4 12 12zm192 0v8c0 6.6-5.4 12-12 12H236c-6.6 0-12-5.4-12-12v-8c0-6.6 5.4-12 12-12h136c6.6 0 12 5.4 12 12z"/>
    </symbol>
    <symbol id="light-cube" viewBox="0 0 512 512">
        <title id="light-cube">Cube</title>
        <path d="M239.1 6.3l-208 78c-18.7 7-31.1 25-31.1 45v225.1c0 18.2 10.3 34.8 26.5 42.9l208 104c13.5 6.8 29.4 6.8 42.9 0l208-104c16.3-8.1 26.5-24.8 26.5-42.9V129.3c0-20-12.4-37.9-31.1-44.9l-208-78C262 2.2 250 2.2 239.1 6.3zM256 34.2l224 84v.3l-224 97.1-224-97.1v-.3l224-84zM32 153.4l208 90.1v224.7l-208-104V153.4zm240 314.8V243.5l208-90.1v210.9L272 468.2z"/>
    </symbol>
    <symbol id="light-database" viewBox="0 0 448 512">
        <title id="light-database">Database</title>
        <path d="M224 32c106 0 192 28.75 192 64v32c0 35.25-86 64-192 64S32 163.25 32 128V96c0-35.25 86-64 192-64m192 149.5V224c0 35.25-86 64-192 64S32 259.25 32 224v-42.5c41.25 29 116.75 42.5 192 42.5s150.749-13.5 192-42.5m0 96V320c0 35.25-86 64-192 64S32 355.25 32 320v-42.5c41.25 29 116.75 42.5 192 42.5s150.749-13.5 192-42.5m0 96V416c0 35.25-86 64-192 64S32 451.25 32 416v-42.5c41.25 29 116.75 42.5 192 42.5s150.749-13.5 192-42.5M224 0C145.858 0 0 18.801 0 96v320c0 77.338 146.096 96 224 96 78.142 0 224-18.801 224-96V96c0-77.338-146.096-96-224-96z"/>
    </symbol>
    <symbol id="light-shopping-cart" viewBox="0 0 576 512">
        <title id="light-shopping-cart">Shopping Cart</title>
        <path d="M551.991 64H129.28l-8.329-44.423C118.822 8.226 108.911 0 97.362 0H12C5.373 0 0 5.373 0 12v8c0 6.627 5.373 12 12 12h78.72l69.927 372.946C150.305 416.314 144 431.42 144 448c0 35.346 28.654 64 64 64s64-28.654 64-64a63.681 63.681 0 00-8.583-32h145.167a63.681 63.681 0 00-8.583 32c0 35.346 28.654 64 64 64 35.346 0 64-28.654 64-64 0-17.993-7.435-34.24-19.388-45.868C506.022 391.891 496.76 384 485.328 384H189.28l-12-64h331.381c11.368 0 21.177-7.976 23.496-19.105l43.331-208C578.592 77.991 567.215 64 551.991 64zM240 448c0 17.645-14.355 32-32 32s-32-14.355-32-32 14.355-32 32-32 32 14.355 32 32zm224 32c-17.645 0-32-14.355-32-32s14.355-32 32-32 32 14.355 32 32-14.355 32-32 32zm38.156-192H171.28l-36-192h406.876l-40 192z"/>
    </symbol>
    <symbol id="light-search" viewBox="0 0 512 512">
        <title id="light-search">Search</title>
        <path d="M508.5 481.6l-129-129c-2.3-2.3-5.3-3.5-8.5-3.5h-10.3C395 312 416 262.5 416 208 416 93.1 322.9 0 208 0S0 93.1 0 208s93.1 208 208 208c54.5 0 104-21 141.1-55.2V371c0 3.2 1.3 6.2 3.5 8.5l129 129c4.7 4.7 12.3 4.7 17 0l9.9-9.9c4.7-4.7 4.7-12.3 0-17zM208 384c-97.3 0-176-78.7-176-176S110.7 32 208 32s176 78.7 176 176-78.7 176-176 176z"/>
    </symbol>
    <symbol id="light-info-circle" viewBox="0 0 512 512">
        <title id="light-info-circle">Info Circle</title>
        <path d="M256 40c118.621 0 216 96.075 216 216 0 119.291-96.61 216-216 216-119.244 0-216-96.562-216-216 0-119.203 96.602-216 216-216m0-32C119.043 8 8 119.083 8 256c0 136.997 111.043 248 248 248s248-111.003 248-248C504 119.083 392.957 8 256 8zm-36 344h12V232h-12c-6.627 0-12-5.373-12-12v-8c0-6.627 5.373-12 12-12h48c6.627 0 12 5.373 12 12v140h12c6.627 0 12 5.373 12 12v8c0 6.627-5.373 12-12 12h-72c-6.627 0-12-5.373-12-12v-8c0-6.627 5.373-12 12-12zm36-240c-17.673 0-32 14.327-32 32s14.327 32 32 32 32-14.327 32-32-14.327-32-32-32z"/>
    </symbol>
</svg>
